<svg width="64" height="24" viewBox="0 0 64 24" fill="none" xmlns="http://www.w3.org/2000/svg">
<path fill-rule="evenodd" clip-rule="evenodd" d="M0.259498 0.261185C0.0864986 0.435309 0 0.648125 0 0.899637V11.4631V17.8767C0 18.1282 0.0864986 18.341 0.259498 18.5151C0.432498 18.6892 0.643939 18.7763 0.893828 18.7763C1.14372 18.7763 1.35516 18.6892 1.52816 18.5151C1.70116 18.341 1.78766 18.1282 1.78766 17.8767V11.4631C1.80688 10.7666 1.96065 10.1137 2.24899 9.50423C2.53732 8.8948 2.91215 8.3676 3.37348 7.92261C3.83481 7.47763 4.37303 7.12455 4.98814 6.86336C5.60325 6.60218 6.25679 6.47158 6.94879 6.47158C7.66001 6.47158 8.32797 6.60701 8.9527 6.87787C9.57742 7.14873 10.1252 7.52116 10.5962 7.99516C11.0671 8.46917 11.4372 9.02055 11.7063 9.64933C11.9754 10.2781 12.1099 10.9504 12.1099 11.6663V17.8767C12.1099 18.1282 12.1964 18.341 12.3694 18.5151C12.5424 18.6892 12.7539 18.7763 13.0038 18.7763C13.2536 18.7763 13.4651 18.6892 13.6381 18.5151C13.8111 18.341 13.8976 18.1282 13.8976 17.8767V11.6663C13.8976 10.6989 13.715 9.78961 13.3498 8.93833C12.9845 8.08706 12.4896 7.34704 11.8648 6.71826C11.2401 6.08948 10.5049 5.5913 9.65911 5.2237C8.81333 4.8561 7.9099 4.67231 6.94879 4.67231C5.91079 4.67231 4.9497 4.88029 4.06548 5.29625C3.18125 5.71221 2.42199 6.27811 1.78766 6.99395V0.899637C1.78766 0.648125 1.70116 0.435309 1.52816 0.261185C1.35516 0.0870608 1.14372 0 0.893828 0C0.643939 0 0.432498 0.0870608 0.259498 0.261185ZM50.977 6.5949C51.4747 6.5949 51.8781 6.18887 51.8781 5.68801C51.8781 5.18715 51.4747 4.78112 50.977 4.78112C50.4794 4.78112 50.076 5.18715 50.076 5.68801C50.076 6.18887 50.4794 6.5949 50.977 6.5949ZM63.0509 6.5949C63.5485 6.5949 63.9519 6.18887 63.9519 5.68801C63.9519 5.18715 63.5485 4.78112 63.0509 4.78112C62.5533 4.78112 62.1499 5.18715 62.1499 5.68801C62.1499 6.18887 62.5533 6.5949 63.0509 6.5949ZM23.4574 4.70117C24.3801 4.70117 25.2595 4.8898 26.0956 5.26707C26.9318 5.64434 27.667 6.1522 28.3014 6.79065C28.9357 7.42911 29.4403 8.17396 29.8151 9.02523C30.1899 9.87651 30.3773 10.7858 30.3773 11.7532V17.8765C30.3773 18.128 30.2908 18.3408 30.1178 18.515C29.9448 18.6891 29.7334 18.7761 29.4835 18.7761C29.2336 18.7761 29.0222 18.6891 28.8492 18.515C28.6762 18.3408 28.5897 18.128 28.5897 17.8765V16.1063C27.9554 16.8221 27.1913 17.4364 26.2975 17.9491C25.4036 18.4618 24.4377 18.7181 23.3997 18.7181C22.4386 18.7181 21.54 18.544 20.7038 18.1957C19.8677 17.8475 19.1324 17.3638 18.4981 16.7447C17.8637 16.1256 17.364 15.3904 16.9988 14.5391C16.6335 13.6879 16.4509 12.7592 16.4509 11.7532C16.4509 10.7858 16.6287 9.88135 16.9843 9.03975C17.34 8.19814 17.8301 7.46297 18.4548 6.83418C19.0796 6.2054 19.8196 5.70238 20.675 5.32511C21.5304 4.94784 22.4578 4.73987 23.4574 4.70117ZM18.2386 11.7535C18.2386 12.4693 18.3731 13.1416 18.6422 13.7704C18.9113 14.3992 19.2814 14.9506 19.7523 15.4246C20.2233 15.8986 20.7711 16.271 21.3958 16.5419C22.0205 16.8127 22.6885 16.9482 23.3997 16.9482C24.0917 16.9482 24.7453 16.8176 25.3604 16.5564C25.9755 16.2952 26.5185 15.9324 26.9894 15.4681C27.4604 15.0038 27.8352 14.4572 28.1139 13.8285C28.3927 13.1997 28.5512 12.508 28.5897 11.7535C28.5897 11.0376 28.4551 10.3605 28.186 9.72205C27.9169 9.08359 27.5469 8.52737 27.0759 8.05336C26.605 7.57936 26.0524 7.20693 25.418 6.93607C24.7837 6.66521 24.1109 6.52979 23.3997 6.52979C22.6885 6.52979 22.0205 6.66521 21.3958 6.93607C20.7711 7.20693 20.2233 7.57936 19.7523 8.05336C19.2814 8.52737 18.9113 9.08359 18.6422 9.72205C18.3731 10.3605 18.2386 11.0376 18.2386 11.7535ZM40.6003 18.7474C39.5239 18.7087 38.5435 18.433 37.6593 17.9203C36.7751 17.4076 36.0158 16.803 35.3815 16.1065V23.1005C35.3815 23.352 35.295 23.5648 35.122 23.7389C34.949 23.9131 34.7376 24.0001 34.4877 24.0001C34.2378 24.0001 34.0263 23.9131 33.8533 23.7389C33.6803 23.5648 33.5938 23.352 33.5938 23.1005V11.6954C33.5938 10.6894 33.7765 9.7607 34.1417 8.90943C34.5069 8.05816 35.0067 7.32298 35.641 6.70387C36.2753 6.08476 37.0106 5.60109 37.8467 5.25284C38.6829 4.90459 39.5815 4.73047 40.5426 4.73047C41.523 4.73047 42.436 4.91426 43.2818 5.28186C44.1276 5.64946 44.8628 6.15247 45.4875 6.79093C46.1122 7.42938 46.6072 8.1694 46.9724 9.011C47.3376 9.8526 47.5203 10.7474 47.5203 11.6954C47.5203 12.6628 47.3328 13.5721 46.958 14.4233C46.5832 15.2746 46.0786 16.0195 45.4443 16.6579C44.8099 17.2964 44.0747 17.8042 43.2385 18.1815C42.4024 18.5588 41.523 18.7474 40.6003 18.7474ZM35.3815 11.6952C35.4007 12.4497 35.5545 13.1462 35.8428 13.7846C36.1311 14.4231 36.506 14.9745 36.9673 15.4388C37.4286 15.9032 37.9669 16.2659 38.582 16.5271C39.1971 16.7883 39.8506 16.9189 40.5426 16.9189C41.2538 16.9189 41.9266 16.7834 42.5609 16.5126C43.1953 16.2417 43.7479 15.8693 44.2188 15.3953C44.6898 14.9213 45.0598 14.3651 45.3289 13.7266C45.598 13.0882 45.7326 12.411 45.7326 11.6952C45.7326 10.9793 45.598 10.307 45.3289 9.67824C45.0598 9.04946 44.6898 8.49807 44.2188 8.02407C43.7479 7.55006 43.1953 7.17764 42.5609 6.90678C41.9266 6.63592 41.2538 6.50049 40.5426 6.50049C39.8314 6.50049 39.1634 6.63592 38.5387 6.90678C37.914 7.17764 37.3662 7.55006 36.8952 8.02407C36.4243 8.49807 36.0543 9.04946 35.7851 9.67824C35.516 10.307 35.3815 10.9793 35.3815 11.6952ZM50.1024 9.17063C50.1024 8.91912 50.1889 8.70631 50.3619 8.53218C50.5349 8.35806 50.7464 8.271 50.9962 8.271C51.2461 8.271 51.4576 8.35806 51.6306 8.53218C51.8036 8.70631 51.8901 8.91912 51.8901 9.17063V11.7535C51.8901 12.4693 52.0246 13.1416 52.2937 13.7704C52.5628 14.3992 52.9329 14.9506 53.4038 15.4246C53.8748 15.8986 54.4226 16.271 55.0473 16.5419C55.672 16.8127 56.34 16.9481 57.0512 16.9481C57.7624 16.9481 58.4304 16.8127 59.0551 16.5419C59.6798 16.271 60.2277 15.8986 60.6986 15.4246C61.1695 14.9506 61.5396 14.3992 61.8087 13.7704C62.0778 13.1416 62.2123 12.4693 62.2123 11.7535V9.17063C62.2123 8.91912 62.2988 8.70631 62.4718 8.53218C62.6448 8.35806 62.8563 8.271 63.1062 8.271C63.3561 8.271 63.5675 8.35806 63.7405 8.53218C63.9135 8.70631 64 8.91912 64 9.17063V11.7535C64 12.7208 63.8174 13.6301 63.4522 14.4814C63.0869 15.3327 62.592 16.0727 61.9673 16.7015C61.3425 17.3302 60.6073 17.8284 59.7615 18.196C58.9157 18.5636 58.0123 18.7474 57.0512 18.7474C56.0901 18.7474 55.1867 18.5636 54.3409 18.196C53.4951 17.8284 52.7599 17.3302 52.1352 16.7015C51.5104 16.0727 51.0155 15.3327 50.6502 14.4814C50.285 13.6301 50.1024 12.7208 50.1024 11.7535V9.17063Z" fill="#3D3D3D"/>
</svg>
